<?xml version="1.0" encoding="utf-8"?>
<!-- Generator: Adobe Illustrator 17.1.0, SVG Export Plug-In . SVG Version: 6.00 Build 0)  -->
<!DOCTYPE svg PUBLIC "-//W3C//DTD SVG 1.1//EN" "http://www.w3.org/Graphics/SVG/1.1/DTD/svg11.dtd">
<svg version="1.1" xmlns="http://www.w3.org/2000/svg" xmlns:xlink="http://www.w3.org/1999/xlink" x="0px" y="0px"
	 viewBox="0 0 960 339" enable-background="new 0 0 960 339" xml:space="preserve">
<g id="Logo">
	<g>
		<path fill="#000000" d="M238.3,192.2H206c-7.4,0-11.1-2.9-11.1-8.8c0-1.5,0.3-3.3,0.8-5.3l6-22.2c2.5-9.4,8.4-14.1,17.8-14.1h82
			l-2.9,10.8h-67.5c-4.7,0-7.7,2.3-8.9,7l-3.9,14.7c-0.3,1-0.4,1.9-0.4,2.7c0,2.9,1.9,4.4,5.6,4.4h17.8L238.3,192.2z"/>
		<path fill="#000000" d="M288,192.2h-18l0.4-1.3c-2.8,1.1-6.6,1.7-11.5,1.7c-8.7,0-13-3.4-13-10.1c0-1.8,0.3-3.7,0.9-5.9l6.4-18.1
			h18l-6.9,19.8c-0.3,1-0.4,1.9-0.4,2.6c0,2.2,1.2,3.3,3.6,3.3c3.2,0,5.3-2,6.3-6l6.9-19.8h18L288,192.2z"/>
		<path fill="#000000" d="M346.1,174c-3.3,12.4-12.4,18.5-27.4,18.5c-3.2,0-5.9-0.6-8.2-1.8l-0.4,1.4h-18l13.8-39.9l-7.4,0.4
			l2.9-10.8h22.2l-3.2,12.2c2.8-1.1,5.8-1.7,9-1.7c12.2,0,18.3,4.1,18.4,12.3c0,1.9-0.3,3.9-0.9,6.1L346.1,174z M323.5,178.1
			l3.1-11.5c0.3-1,0.4-1.9,0.4-2.6c0-2.3-1.2-3.4-3.6-3.4c-3.2,0-5.3,2-6.3,6l-3.1,11.5c-0.3,1-0.4,1.9-0.4,2.6
			c0,2.3,1.2,3.4,3.6,3.4C320.3,184.1,322.4,182.1,323.5,178.1z"/>
		<path fill="#000000" d="M362.7,192.2h-18l10.6-39.6h18L362.7,192.2z M374.1,149.9h-18l2.2-8.1h18L374.1,149.9z"/>
		<path fill="#000000" d="M414.5,192.2h-18.7l-3.4-7.4l-7.4,7.4l-18.7,0l19.7-19.8l-9.1-19.8h18.7l3.4,7.4l7.4-7.4h18.7l-19.7,19.8
			L414.5,192.2z"/>
		<path fill="#000000" d="M549.1,152.6h-74.3c-4,0-6.4,1.4-7.1,4.3c-0.1,0.5-0.2,0.9-0.2,1.3c0,2,1.7,3,5,3h9.7
			c7.4,0,11.1,2.9,11.1,8.7c0,1.6-0.3,3.3-0.8,5.3l-0.7,2.8c-2.5,9.4-8.5,14.1-17.9,14.1h-33.7l2.9-10.8h23.8c4,0,6.4-1.4,7.1-4.3
			c0.1-0.5,0.2-0.9,0.2-1.3c0-2-1.7-3-5-3h-9.7c-7.4,0-11.1-2.9-11.1-8.7c0-1.6,0.3-3.4,0.8-5.3l0.7-2.8c2.5-9.4,8.4-14.1,17.8-14.1
			l84.2,0L549.1,152.6z"/>
		<path fill="#000000" d="M548.9,174c-3.3,12.4-13.7,18.5-31.2,18.5c-14.8,0-22.2-4.4-22.1-13.3c0-1.6,0.3-3.4,0.8-5.3l0.8-3.2
			c3.3-12.3,12.5-15.5,30-15.5c14.7,0,23.4,1.4,23.4,10.1c0,1.6-0.3,3.4-0.8,5.4L548.9,174z M526.3,178.1l3.1-11.4
			c0.3-1,0.4-1.9,0.4-2.6c0-2.3-1.2-3.4-3.6-3.4c-3.2,0-5.3,2-6.3,6l-3.1,11.4c-0.3,1-0.4,1.9-0.4,2.6c0,2.3,1.2,3.4,3.6,3.4
			C523.1,184.1,525.2,182.1,526.3,178.1z"/>
		<path fill="#000000" d="M565.5,192.2h-18l11.5-39.6h-9.9l2.9-10.8h27L565.5,192.2z"/>
		<path fill="#000000" d="M615.2,192.2h-18l0.4-1.3c-2.8,1.1-6.6,1.7-11.5,1.7c-8.7,0-13-3.4-13-10.1c0-1.8,0.3-3.7,0.9-5.9
			l6.4-23.9h18l-6.9,25.6c-0.3,1-0.4,1.9-0.4,2.6c0,2.2,1.2,3.3,3.6,3.3c3.2,0,5.3-2,6.3-6l6.9-25.5h18L615.2,192.2z"/>
		<path fill="#000000" d="M662,163.4h-8.8l-7.7,28.8h-18l7.7-28.8h-8.8l2.9-10.8h8.8l2.9-10.8h18l-2.9,10.8h8.8L662,163.4z"/>
		<path fill="#000000" d="M675.8,192.2h-18l10.6-39.6h18L675.8,192.2z M687.2,149.9h-18l2.2-8.1h18L687.2,149.9z"/>
		<path fill="#000000" d="M736.8,174c-3.3,12.4-13.7,18.5-31.2,18.5c-14.8,0-22.2-4.4-22.1-13.3c0-1.6,0.3-3.4,0.8-5.3l0.8-3.2
			c3.3-12.3,13.7-18.5,31.2-18.5c14.7,0,22.1,4.4,22.1,13.1c0,1.6-0.3,3.4-0.8,5.4L736.8,174z M714.2,178.1l3.1-11.4
			c0.3-1,0.4-1.9,0.4-2.6c0-2.3-1.2-3.4-3.6-3.4c-3.2,0-5.3,2-6.3,6l-3.1,11.4c-0.3,1-0.4,1.9-0.4,2.6c0,2.3,1.2,3.4,3.6,3.4
			C711,184.1,713.1,182.1,714.2,178.1z"/>
		<path fill="#000000" d="M780.9,192.2h-18l6.9-25.6c0.3-1,0.4-1.9,0.4-2.6c0-2.3-1.2-3.4-3.6-3.4c-3.2,0-5.3,2-6.4,6l-6.9,25.5h-18
			l10.6-39.6h18l-0.4,1.3c2.8-1.1,6.6-1.7,11.5-1.7c8.7,0,13,3.4,13,10.1c0,1.7-0.3,3.7-0.9,5.9L780.9,192.2z"/>
		<path fill="#000000" d="M842.6,164.9h-20.1c0.1-0.5,0.2-1,0.2-1.4c0-1.8-1.3-2.8-4-2.8c-3.9,0-5.8,1.1-5.8,3.4
			c0,1.5,2.3,2.6,6.8,3.4c7.2,1.3,11.6,2.3,13.4,3.1c3.7,1.6,5.5,3.9,5.5,7.1c0,0.8-0.1,1.7-0.4,2.6c-2.2,8.2-11.7,12.3-28.6,12.3
			c-15.5,0-23-4.2-22.5-12.6h20.1c-0.1,0.5-0.2,0.9-0.2,1.4c0,1.9,1.5,2.8,4.4,2.8c4.1,0,6.1-1.1,6.1-3.4c0-1.5-2.3-2.6-6.8-3.4
			c-7.1-1.3-11.6-2.3-13.4-3.1c-3.7-1.6-5.5-3.9-5.5-7.1c0-0.8,0.1-1.7,0.4-2.6c2.2-8.2,11.8-12.4,28.6-12.4
			C835.8,152.3,843,156.5,842.6,164.9z"/>
	</g>
	<g id="redBox">
		<path fill="#C1282D" d="M155.4,161.8c3.9,3.9,3.9,10.2,0,14.1l-62.9,62.9c-3.9,3.9-10.2,3.9-14.1,0L15.4,176
			c-3.9-3.9-3.9-10.2,0-14.1l62.9-62.9c3.9-3.9,10.2-3.9,14.1,0L155.4,161.8z"/>
		<path fill="none" stroke="#010101" stroke-width="2" stroke-miterlimit="10" d="M155.4,161.8c3.9,3.9,3.9,10.2,0,14.1l-62.9,62.9
			c-3.9,3.9-10.2,3.9-14.1,0L15.4,176c-3.9-3.9-3.9-10.2,0-14.1l62.9-62.9c3.9-3.9,10.2-3.9,14.1,0L155.4,161.8z"/>
	</g>
	<g id="blueBox">
		<path fill="#1072BA" d="M238.9,78.4c3.9,3.9,3.9,10.2,0,14.1l-62.9,62.9c-3.9,3.9-10.2,3.9-14.1,0L98.9,92.5
			c-3.9-3.9-3.9-10.2,0-14.1l62.9-62.9c3.9-3.9,10.2-3.9,14.1,0L238.9,78.4z"/>
		<path fill="none" stroke="#010101" stroke-width="2" stroke-miterlimit="10" d="M238.9,78.4c3.9,3.9,3.9,10.2,0,14.1l-62.9,62.9
			c-3.9,3.9-10.2,3.9-14.1,0L98.9,92.5c-3.9-3.9-3.9-10.2,0-14.1l62.9-62.9c3.9-3.9,10.2-3.9,14.1,0L238.9,78.4z"/>
	</g>
	<g id="greenBox">
		<path fill="#046937" d="M238.1,244.6c3.9,3.9,3.9,10.2,0,14.1l-62.9,62.9c-3.9,3.9-10.2,3.9-14.1,0l-62.9-62.9
			c-3.9-3.9-3.9-10.2,0-14.1l62.9-62.9c3.9-3.9,10.2-3.9,14.1,0L238.1,244.6z"/>
		<path fill="none" stroke="#010101" stroke-width="2" stroke-miterlimit="10" d="M238.1,244.6c3.9,3.9,3.9,10.2,0,14.1l-62.9,62.9
			c-3.9,3.9-10.2,3.9-14.1,0l-62.9-62.9c-3.9-3.9-3.9-10.2,0-14.1l62.9-62.9c3.9-3.9,10.2-3.9,14.1,0L238.1,244.6z"/>
	</g>
	
</g>
<g id="Spot_Gloss" display="none">
	<g display="inline">
		<path d="M238.3,192.2H206c-7.4,0-11.1-2.9-11.1-8.8c0-1.5,0.3-3.3,0.8-5.3l6-22.2c2.5-9.4,8.4-14.1,17.8-14.1h82l-2.9,10.8h-67.5
			c-4.7,0-7.7,2.3-8.9,7l-3.9,14.7c-0.3,1-0.4,1.9-0.4,2.7c0,2.9,1.9,4.4,5.6,4.4h17.8L238.3,192.2z"/>
		<path d="M288,192.2h-18l0.4-1.3c-2.8,1.1-6.6,1.7-11.5,1.7c-8.7,0-13-3.4-13-10.1c0-1.8,0.3-3.7,0.9-5.9l6.4-18.1h18l-6.9,19.8
			c-0.3,1-0.4,1.9-0.4,2.6c0,2.2,1.2,3.3,3.6,3.3c3.2,0,5.3-2,6.3-6l6.9-19.8h18L288,192.2z"/>
		<path d="M346.1,174c-3.3,12.4-12.4,18.5-27.4,18.5c-3.2,0-5.9-0.6-8.2-1.8l-0.4,1.4h-18l13.8-39.9l-7.4,0.4l2.9-10.8h22.2
			l-3.2,12.2c2.8-1.1,5.8-1.7,9-1.7c12.2,0,18.3,4.1,18.4,12.3c0,1.9-0.3,3.9-0.9,6.1L346.1,174z M323.5,178.1l3.1-11.5
			c0.3-1,0.4-1.9,0.4-2.6c0-2.3-1.2-3.4-3.6-3.4c-3.2,0-5.3,2-6.3,6l-3.1,11.5c-0.3,1-0.4,1.9-0.4,2.6c0,2.3,1.2,3.4,3.6,3.4
			C320.3,184.1,322.4,182.1,323.5,178.1z"/>
		<path d="M362.7,192.2h-18l10.6-39.6h18L362.7,192.2z M374.1,149.9h-18l2.2-8.1h18L374.1,149.9z"/>
		<path d="M414.5,192.2h-18.7l-3.4-7.4l-7.4,7.4l-18.7,0l19.7-19.8l-9.1-19.8h18.7l3.4,7.4l7.4-7.4h18.7l-19.7,19.8L414.5,192.2z"/>
		<path d="M549.1,152.6h-74.3c-4,0-6.4,1.4-7.1,4.3c-0.1,0.5-0.2,0.9-0.2,1.3c0,2,1.7,3,5,3h9.7c7.4,0,11.1,2.9,11.1,8.7
			c0,1.6-0.3,3.3-0.8,5.3l-0.7,2.8c-2.5,9.4-8.5,14.1-17.9,14.1h-33.7l2.9-10.8h23.8c4,0,6.4-1.4,7.1-4.3c0.1-0.5,0.2-0.9,0.2-1.3
			c0-2-1.7-3-5-3h-9.7c-7.4,0-11.1-2.9-11.1-8.7c0-1.6,0.3-3.4,0.8-5.3l0.7-2.8c2.5-9.4,8.4-14.1,17.8-14.1l84.2,0L549.1,152.6z"/>
		<path d="M548.9,174c-3.3,12.4-13.7,18.5-31.2,18.5c-14.8,0-22.2-4.4-22.1-13.3c0-1.6,0.3-3.4,0.8-5.3l0.8-3.2
			c3.3-12.3,12.5-15.5,30-15.5c14.7,0,23.4,1.4,23.4,10.1c0,1.6-0.3,3.4-0.8,5.4L548.9,174z M526.3,178.1l3.1-11.4
			c0.3-1,0.4-1.9,0.4-2.6c0-2.3-1.2-3.4-3.6-3.4c-3.2,0-5.3,2-6.3,6l-3.1,11.4c-0.3,1-0.4,1.9-0.4,2.6c0,2.3,1.2,3.4,3.6,3.4
			C523.1,184.1,525.2,182.1,526.3,178.1z"/>
		<path d="M565.5,192.2h-18l11.5-39.6h-9.9l2.9-10.8h27L565.5,192.2z"/>
		<path d="M615.2,192.2h-18l0.4-1.3c-2.8,1.1-6.6,1.7-11.5,1.7c-8.7,0-13-3.4-13-10.1c0-1.8,0.3-3.7,0.9-5.9l6.4-23.9h18l-6.9,25.6
			c-0.3,1-0.4,1.9-0.4,2.6c0,2.2,1.2,3.3,3.6,3.3c3.2,0,5.3-2,6.3-6l6.9-25.5h18L615.2,192.2z"/>
		<path d="M662,163.4h-8.8l-7.7,28.8h-18l7.7-28.8h-8.8l2.9-10.8h8.8l2.9-10.8h18l-2.9,10.8h8.8L662,163.4z"/>
		<path d="M675.8,192.2h-18l10.6-39.6h18L675.8,192.2z M687.2,149.9h-18l2.2-8.1h18L687.2,149.9z"/>
		<path d="M736.8,174c-3.3,12.4-13.7,18.5-31.2,18.5c-14.8,0-22.2-4.4-22.1-13.3c0-1.6,0.3-3.4,0.8-5.3l0.8-3.2
			c3.3-12.3,13.7-18.5,31.2-18.5c14.7,0,22.1,4.4,22.1,13.1c0,1.6-0.3,3.4-0.8,5.4L736.8,174z M714.2,178.1l3.1-11.4
			c0.3-1,0.4-1.9,0.4-2.6c0-2.3-1.2-3.4-3.6-3.4c-3.2,0-5.3,2-6.3,6l-3.1,11.4c-0.3,1-0.4,1.9-0.4,2.6c0,2.3,1.2,3.4,3.6,3.4
			C711,184.1,713.1,182.1,714.2,178.1z"/>
		<path d="M780.9,192.2h-18l6.9-25.6c0.3-1,0.4-1.9,0.4-2.6c0-2.3-1.2-3.4-3.6-3.4c-3.2,0-5.3,2-6.4,6l-6.9,25.5h-18l10.6-39.6h18
			l-0.4,1.3c2.8-1.1,6.6-1.7,11.5-1.7c8.7,0,13,3.4,13,10.1c0,1.7-0.3,3.7-0.9,5.9L780.9,192.2z"/>
		<path d="M842.6,164.9h-20.1c0.1-0.5,0.2-1,0.2-1.4c0-1.8-1.3-2.8-4-2.8c-3.9,0-5.8,1.1-5.8,3.4c0,1.5,2.3,2.6,6.8,3.4
			c7.2,1.3,11.6,2.3,13.4,3.1c3.7,1.6,5.5,3.9,5.5,7.1c0,0.8-0.1,1.7-0.4,2.6c-2.2,8.2-11.7,12.3-28.6,12.3
			c-15.5,0-23-4.2-22.5-12.6h20.1c-0.1,0.5-0.2,0.9-0.2,1.4c0,1.9,1.5,2.8,4.4,2.8c4.1,0,6.1-1.1,6.1-3.4c0-1.5-2.3-2.6-6.8-3.4
			c-7.1-1.3-11.6-2.3-13.4-3.1c-3.7-1.6-5.5-3.9-5.5-7.1c0-0.8,0.1-1.7,0.4-2.6c2.2-8.2,11.8-12.4,28.6-12.4
			C835.8,152.3,843,156.5,842.6,164.9z"/>
	</g>
	<g display="inline">
		<path d="M155.4,161.8c3.9,3.9,3.9,10.2,0,14.1l-62.9,62.9c-3.9,3.9-10.2,3.9-14.1,0L15.4,176c-3.9-3.9-3.9-10.2,0-14.1l62.9-62.9
			c3.9-3.9,10.2-3.9,14.1,0L155.4,161.8z"/>
		<path fill="none" stroke="#010101" stroke-width="2" stroke-miterlimit="10" d="M155.4,161.8c3.9,3.9,3.9,10.2,0,14.1l-62.9,62.9
			c-3.9,3.9-10.2,3.9-14.1,0L15.4,176c-3.9-3.9-3.9-10.2,0-14.1l62.9-62.9c3.9-3.9,10.2-3.9,14.1,0L155.4,161.8z"/>
	</g>
	<g display="inline">
		<path d="M238.9,78.4c3.9,3.9,3.9,10.2,0,14.1l-62.9,62.9c-3.9,3.9-10.2,3.9-14.1,0L98.9,92.5c-3.9-3.9-3.9-10.2,0-14.1l62.9-62.9
			c3.9-3.9,10.2-3.9,14.1,0L238.9,78.4z"/>
		<path fill="none" stroke="#010101" stroke-width="2" stroke-miterlimit="10" d="M238.9,78.4c3.9,3.9,3.9,10.2,0,14.1l-62.9,62.9
			c-3.9,3.9-10.2,3.9-14.1,0L98.9,92.5c-3.9-3.9-3.9-10.2,0-14.1l62.9-62.9c3.9-3.9,10.2-3.9,14.1,0L238.9,78.4z"/>
	</g>
	<g display="inline">
		<path d="M238.1,244.6c3.9,3.9,3.9,10.2,0,14.1l-62.9,62.9c-3.9,3.9-10.2,3.9-14.1,0l-62.9-62.9c-3.9-3.9-3.9-10.2,0-14.1
			l62.9-62.9c3.9-3.9,10.2-3.9,14.1,0L238.1,244.6z"/>
		<path fill="none" stroke="#010101" stroke-width="2" stroke-miterlimit="10" d="M238.1,244.6c3.9,3.9,3.9,10.2,0,14.1l-62.9,62.9
			c-3.9,3.9-10.2,3.9-14.1,0l-62.9-62.9c-3.9-3.9-3.9-10.2,0-14.1l62.9-62.9c3.9-3.9,10.2-3.9,14.1,0L238.1,244.6z"/>
	</g>
</g>
</svg>
